<svg width="80" height="80" viewBox="0 0 80 80" fill="none" xmlns="http://www.w3.org/2000/svg">
<g clip-path="url(#clip0)">
<rect x="2.5" y="2.5" width="75" height="75" rx="6.25" fill="#1BB385"/>
<path d="M59.3594 60.9356L55.5312 59.1924L47.2939 56.6631C48.6611 54.9542 49.3447 52.892 49.3447 50.4766L49.6182 34.959C49.6182 33.8197 48.7751 32.726 47.0889 31.6778L52.25 25.1837L60.4531 30.6182C60.2025 31.5525 59.8493 32.2247 59.3936 32.6348C58.9606 33.0222 58.6986 33.683 58.6074 34.6172L57.0693 50.6475C57.001 51.3539 57.4567 52.4477 58.4365 53.9288C59.4391 55.4099 60.6924 56.1846 62.1963 56.253C64.5661 50.807 65.8193 43.709 65.9561 34.959C66.0016 33.8881 65.1813 32.7943 63.4951 31.6778L68.6562 25.1837L76.3809 30.6182C76.1302 31.5525 75.8682 32.1677 75.5947 32.4639C75.3213 32.7374 74.8997 34.1501 74.3301 36.7022C73.7604 39.2315 72.5299 42.7292 70.6387 47.1954C68.7702 51.6615 66.708 55.8428 64.4521 59.7393C62.2191 63.613 59.929 66.9854 57.582 69.8565C55.2578 72.7504 53.1729 74.6758 51.3271 75.6329L44.6963 70.2325C51.3499 67.7943 56.2376 64.6954 59.3594 60.9356Z" fill="#F2F2F2"/>
<path d="M5.29559 44.5361C10.1133 37.9215 16.4024 31.0595 24.1628 23.9501C22.8867 22.9085 21.5326 22.3876 20.1003 22.3876C18.069 22.3876 13.7722 23.7418 7.20966 26.4501L16.6237 12.1142C24.2018 12.8954 31.2461 13.2861 37.7565 13.2861C44.293 13.2861 50.53 12.8954 56.4675 12.1142C53.5768 18.7809 51.5716 23.4423 50.4518 26.0986C47.5612 24.9007 44.5534 23.9632 41.4284 23.2861L41.7409 55.3564C37.1315 55.8772 32.7696 57.5569 28.655 60.3954C31.9883 63.1298 35.9857 64.497 40.6472 64.497C45.3086 64.497 50.3867 63.0647 55.8815 60.2001C55.7774 61.971 55.6992 63.7418 55.6472 65.5126C41.3242 72.1012 30.2565 73.1559 22.444 68.6767C14.6315 64.1975 8.91539 56.1507 5.29559 44.5361ZM28.1472 28.0126C24.1107 31.8147 21.7279 35.747 20.9987 39.8095C20.7383 41.1897 20.6081 42.8434 20.6081 44.7704C20.6081 46.6975 21.1029 48.885 22.0925 51.3329C23.0821 53.7548 24.3581 55.8772 25.9206 57.7001C27.7956 55.8512 28.7852 52.9996 28.8893 49.1454C29.0716 41.9579 29.1628 37.0882 29.1628 34.5361C29.1628 31.984 28.8242 29.8095 28.1472 28.0126Z" fill="#181818"/>
</g>
<defs>
<clipPath id="clip0">
<rect width="80" height="80" fill="white"/>
</clipPath>
</defs>
</svg>
