<svg width="80" height="80" viewBox="0 0 80 80" fill="none" xmlns="http://www.w3.org/2000/svg">
<path opacity="0.2" fill-rule="evenodd" clip-rule="evenodd" d="M40 9L74.8284 43.8284L76 45L74 47L70.8285 43.8284L40 13L9.17162 43.8284L9.17157 43.8284L6.00004 47L4.00004 45L5.17157 43.8284L5.17162 43.8284L40 9ZM40 17L66.8284 43.8284L72 49L70 51L62.8285 43.8284L62.8284 43.8284L40 21L17.1716 43.8284L17.1716 43.8284L10 51L8.00004 49L13.1716 43.8284L13.1716 43.8284L40 17ZM40 25L58.8284 43.8284L58.8285 43.8284L68 53L66 55L54.8285 43.8284L54.8284 43.8284L40 29L25.1716 43.8284L25.1716 43.8284L14 55L12 53L21.1716 43.8284L21.1716 43.8284L40 25ZM40 33L50.8284 43.8284L50.8285 43.8284L64 57L62 59L46.8285 43.8284L46.8284 43.8284L40 37L33.1716 43.8284L33.1716 43.8284L18 59L16 57L29.1716 43.8284L29.1716 43.8284L40 33ZM40 41L42.8284 43.8284L42.8285 43.8284L60 61L58 63L40 45L22 63L20 61L37.1716 43.8284L37.1716 43.8284L40 41ZM80 41L78 43L40 5L2 43L0 41L40 1L80 41ZM56 65L54 67L40 53L26 67L24 65L40 49L56 65ZM52 69L50 71L40 61L30 71L28 69L40 57L52 69ZM48 73L46 75L40 69L34 75L32 73L40 65L48 73ZM44 77L42 79L40 77L38 79L36 77L40 73L44 77Z" fill="white" fill-opacity="0.05"/>
<path d="M57.6671 56.2753L54.0155 54.6125L46.158 52.1999C47.4622 50.5697 48.1142 48.6026 48.1142 46.2986L48.3751 31.4966C48.3751 30.4098 47.5708 29.3665 45.9624 28.3667L50.8855 22.172L58.7104 27.356C58.4713 28.2471 58.1344 28.8883 57.6997 29.2796C57.2867 29.6491 57.0367 30.2794 56.9498 31.1706L55.4826 46.4616C55.4174 47.1354 55.8521 48.1788 56.7868 49.5916C57.7431 51.0044 58.9386 51.7434 60.3732 51.8086C62.6337 46.6138 63.8291 39.8431 63.9596 31.4966C64.003 30.475 63.2205 29.4317 61.6121 28.3667L66.5352 22.172L73.9036 27.356C73.6645 28.2471 73.4146 28.834 73.1538 29.1166C72.8929 29.3774 72.4908 30.725 71.9474 33.1594C71.404 35.5721 70.2303 38.9085 68.4262 43.1687C66.6439 47.4289 64.6768 51.4174 62.525 55.1342C60.3949 58.8292 58.2105 62.0461 55.9717 64.7848C53.7546 67.5453 51.7658 69.3819 50.0052 70.2948L43.6801 65.1435C50.027 62.8177 54.6893 59.8617 57.6671 56.2753Z" fill="#393E46"/>
<path d="M6.09631 40.632C10.6919 34.3224 16.6909 27.7769 24.0935 20.9953C22.8763 20.0017 21.5846 19.5049 20.2183 19.5049C18.2807 19.5049 14.182 20.7966 7.92211 23.3801L16.9021 9.7052C24.1307 10.4504 30.8502 10.823 37.0604 10.823C43.2954 10.823 49.2448 10.4504 54.9085 9.7052C52.1512 16.0644 50.2384 20.5109 49.1703 23.0447C46.4129 21.902 43.5438 21.0078 40.5629 20.3619L40.861 50.9533C36.4642 51.4502 32.3034 53.0524 28.3785 55.76C31.5581 58.3683 35.3712 59.6725 39.8177 59.6725C44.2642 59.6725 49.1082 58.3062 54.3496 55.5737C54.2502 57.2629 54.1757 58.9521 54.126 60.6413C40.4636 66.926 29.9062 67.932 22.454 63.6594C15.0017 59.3868 9.54918 51.711 6.09631 40.632ZM27.8941 24.8705C24.0438 28.4973 21.7709 32.2482 21.0753 36.1234C20.8269 37.44 20.7027 39.0173 20.7027 40.8556C20.7027 42.6938 21.1747 44.7804 22.1186 47.1154C23.0626 49.4256 24.2798 51.4502 25.7702 53.189C27.5588 51.4253 28.5027 48.7053 28.6021 45.0288C28.776 38.1728 28.8629 33.5275 28.8629 31.0931C28.8629 28.6587 28.54 26.5845 27.8941 24.8705Z" fill="#00ADB5" fill-opacity="0.5"/>
</svg>
