<svg width="1920" height="520" viewBox="0 0 1920 520" fill="none" xmlns="http://www.w3.org/2000/svg">
<path fill-rule="evenodd" clip-rule="evenodd" d="M0 403.961L80 355.961C160 307.961 320 211.961 480 183.161C640 154.361 800 192.761 960 221.561C1120 250.361 1280 269.561 1440 231.161C1600 192.761 1760 96.7614 1840 48.7614L1920 0.761353V519.161H1840C1760 519.161 1600 519.161 1440 519.161C1280 519.161 1120 519.161 960 519.161C800 519.161 640 519.161 480 519.161C320 519.161 160 519.161 80 519.161H0V403.961Z" fill="black" fill-opacity="0.05"/>
</svg>
